classDiagram
    Usuario <|-- Paciente: hereda
    Usuario <|-- Administrador: hereda
    Usuario <|-- Especialista: hereda
    Turno <-- Estado: tiene 
    Paciente <-- fichaMedica: tiene 
    Paciente <-- HistoriaClinica: tiene
    Paciente <-- Turno: tiene 

    class Usuario {
        -String nombre
        -String apellido
        -String correo
        -String contraseña
        -Int telefono
        -String direccion
        -String ciudad
        -String pais
        -Date fechaNacimiento
<<<<<<< HEAD
        
        +getNombreCompleto(): String
        +setNombre(nombre: String): void
        +setApellido(apellido: String): void
        +setCorreo(correo: String): void
        +setContraseña(contraseña: String): void
        +setTelefono(telefono: Int): void
        +setDireccion(direccion: String): void
        +setCiudad(ciudad: String): void
        +setPais(pais: String): void
        +setFechaNacimiento(fechaNacimiento: Date): void
=======

        -crearCuenta()
        -login()
        -logout()
        -solicitarTurno()
        -cancelarTurno()
        -verHistoriaClinica()

>>>>>>> main
    }


    class Turno {
        -Date fecha
        -Time hora
        -String especialista
        -String paciente
        -Estado estado

<<<<<<< HEAD
        +getFecha(): Date
        +setFecha(fecha: Date): void
        +getHora(): Time
        +setHora(hora: Time): void
        +getEspecialista(): String
        +setEspecialista(especialista: String): void
        +getPaciente(): String
        +setPaciente(paciente: String): void
        +getEstado(): Estado
        +setEstado(estado: Estado): void
=======
        -crearTurno()
        -confirmarTurno()
        -verTurno()
        -cancelarTurno()
        -reprogramarTurno()
>>>>>>> main
    }

    class Estado {
        -String estado
        -String descripcion
    }

    class Paciente {
        -String nombre
        -String apellido
        -Int dni

<<<<<<< HEAD
        +getNombre(): String
        +setNombre(nombre: String): void
        +setApellido(apellido: String): void
        +setDni(dni: Int): void
=======
        -verFichaMedica()
        -verHistoriaClinica()
        -verTurno()
        -solicitarTurno()
>>>>>>> main
    }

    class Especialista {
        -String nombre
        -String apellido
        -String especialidad

<<<<<<< HEAD
        +getNombre(): String
        +setNombre(nombre: String): void
        +setApellido(apellido: String): void
        +setEspecialidad(especialidad: String): void
=======
        -verFichaMedica()
        -verHistoriaClinica()
>>>>>>> main
    }


    class Administrador {
        -String nombre
        -String apellido
        -String correo
        -String contraseña
        -Int telefono
        -String direccion
        -String ciudad
        -String pais
        -Date fechaNacimiento

<<<<<<< HEAD
        +getNombreCompleto(): String
        +setNombre(nombre: String): void
        +setApellido(apellido: String): void
        +setCorreo(correo: String): void
        +setContraseña(contraseña: String): void
        +setTelefono(telefono: Int): void
        +setDireccion(direccion: String): void
        +setCiudad(ciudad: String): void
        +setPais(pais: String): void
        +setFechaNacimiento(fechaNacimiento: Date): void
=======
        -verFichaMedica()
        -verHistoriaClinica()
        -verTurno()
>>>>>>> main
    }

    class fichaMedica {
        -Paciente paciente
        -Especialista especialista
        -Date fecha
        -String motivoConsulta
        -String antecedentes
        -String examenFisico
        -String diagnostico
        -String observaciones

<<<<<<< HEAD
        +getPaciente(): Paciente
        +setPaciente(paciente: Paciente): void
        +getEspecialista(): Especialista
        +setEspecialista(especialista: Especialista): void
        +getFecha(): Date
        +setFecha(fecha: Date): void
        +getMotivoConsulta(): String
        +setMotivoConsulta(motivoConsulta: String): void
        +getAntecedentes(): String
        +setAntecedentes(antecedentes: String): void
        +getExamenFisico(): String
        +setExamenFisico(examenFisico: String): void
        +getDiagnostico(): String
        +setDiagnostico(diagnostico: String): void
        +getObservaciones(): String
        +setObservaciones(observaciones: String): void
=======
        -crearFichaMedica()
        -verFichaMedica()
        -guardarFichaMedica()

    }

    class Medicameto {
        -String nombre
        -String descripcion
        -String dosis
        -String frecuencia
        -String duracion
    }

    class antecedentes {
        -String enfermedades
        -String alergias
        -String cirugias
        -String traumatismos
        -String hospitalizaciones
    }

    class examenFisico {
        -String peso
        -String altura
        -String temperatura
        -String presionArterial
        -String frecuenciaCardiaca
        -String frecuenciaRespiratoria
    }

    class diagnostico {
        -String diagnostico
        -String tratamiento
>>>>>>> main
    }

    class HistoriaClinica {
        -Paciente paciente
        -Especialista especialista
        -Date fecha
        -String antecedentes
        -String examenFisico
        -String diagnostico
        -String observaciones
<<<<<<< HEAD

        +getPaciente(): Paciente
        +setPaciente(paciente: Paciente): void
        +getEspecialista(): Especialista
        +setEspecialista(especialista: Especialista): void
        +getFecha(): Date
        +setFecha(fecha: Date): void
        +getAntecedentes(): String
        +setAntecedentes(antecedentes: String): void
        +getExamenFisico(): String
        +setExamenFisico(examenFisico: String): void
        +getDiagnostico(): String
        +setDiagnostico(diagnostico: String): void
        +getObservaciones(): String
        +setObservaciones(observaciones: String): void
=======
        -Medicameto medicameto

        
>>>>>>> main
    }
